<svg width="285" height="392" viewBox="0 0 285 392" fill="none" xmlns="http://www.w3.org/2000/svg">
<path fill-rule="evenodd" clip-rule="evenodd" d="M277.647 0.501609C280.238 1.07782 284.305 2.94886 284.883 3.83042C285.103 4.16747 285.003 4.7081 284.66 5.0318C284.221 5.44672 283.13 5.25316 280.977 4.37938C279.295 3.69638 276.554 3.00448 274.885 2.84207C272.234 2.584 271.625 2.72694 270.048 3.97948C262.267 10.1582 260.488 35.0172 264.95 75.2044C266.41 88.3544 266.553 91.5286 266.468 108.91C266.363 130.514 265.809 143.33 263.359 180.937C262.422 195.315 261.482 210.958 261.269 215.699C260.651 229.479 262.642 257.045 264.817 264.856C265.843 268.537 268.761 275.059 270.694 277.993C272.61 280.899 272.808 281.724 271.781 282.529C270.993 283.146 270.613 282.977 269.207 281.387C266.214 278.004 264.019 273.31 261.624 265.169C257.488 251.109 255.235 238.836 253.614 221.539C252.229 206.748 248.762 177.304 247.658 170.942C245.796 160.217 242.579 153.692 236.27 147.844C230.187 142.205 223.006 139.402 210.011 137.595C200.909 136.329 187.969 135.724 153.922 134.975C121.129 134.254 106.756 134.522 73.8758 136.469C56.8966 137.475 48.841 138.391 36.9076 140.675C20.4818 143.819 11.9247 146.765 6.96368 150.982C2.82953 154.497 0.990814 160.204 3.82138 160.735C4.34885 160.834 5.74374 162.524 6.92123 164.492C8.82184 167.668 9.52432 168.305 13.1811 170.176C16.9369 172.097 28.9752 176.21 30.844 176.21C31.2718 176.21 32.17 175.334 32.8389 174.263C33.8879 172.586 34.3635 172.316 36.2764 172.316C38.256 172.316 38.896 172.719 42.1686 176.028C45.8401 179.74 45.8401 179.74 52.1966 180.727C55.6926 181.27 62.6431 182.027 67.6418 182.411C76.4264 183.083 76.7523 183.071 77.3658 182.029C77.7153 181.437 78.9647 180.009 80.1416 178.859C83.5732 175.504 87.6644 176.165 92.4586 180.849C95.0917 183.422 95.0917 183.422 114.964 183.431C134.836 183.44 134.836 183.44 137.743 179.374C140.919 174.931 144.128 171.962 146.311 171.445C149.406 170.712 153.037 173.889 155.772 179.727C157.264 182.91 157.264 182.91 162.127 182.587C164.802 182.409 169.755 182.027 173.133 181.739C176.512 181.451 179.449 181.215 179.66 181.215C179.871 181.215 181.514 179.839 183.311 178.156C186.69 174.993 189.108 174.224 190.765 175.788C191.78 176.746 192.688 175.354 192.485 173.15C192.082 168.769 178.113 165.456 153.643 163.935C143.583 163.311 124.821 163.397 70.463 164.314C47.8373 164.696 42.9547 164.317 37.2901 161.736C32.8554 159.715 31.659 157.861 33.3763 155.669C35.6181 152.808 40.9375 151.517 54.3931 150.567C65.6139 149.775 160.48 150.235 171.999 151.137C195.518 152.978 204.711 155.207 214.798 161.513C228.42 170.029 232.877 180.836 225.738 188.037C224.212 189.575 224.212 189.575 225.493 190.421C228.865 192.651 228.657 200.542 224.944 211.17C222.597 217.892 210.178 242.182 204.999 250.183C200.202 257.594 195.036 264.804 190.13 270.936C184.842 277.544 184.842 277.544 183.45 284.654C182.685 288.564 181.761 294.108 181.396 296.975C181.032 299.842 180.101 305.441 179.327 309.418C178.554 313.394 177.369 319.777 176.695 323.601C175.346 331.247 171.886 346.417 170.523 350.657C169.294 354.479 169.364 354.875 172.054 359.353C175.521 365.126 177.348 369.586 177.721 373.193C178.017 376.051 177.906 376.477 176.524 377.781C173.865 380.291 168.492 379.312 163.197 375.354C160.996 373.71 160.996 373.71 157.135 377.265C154.041 380.114 152.612 381.002 149.944 381.734C142.934 383.658 136.871 380.873 130.361 372.738C128.807 370.797 127.361 369.208 127.146 369.208C126.932 369.208 126.294 369.875 125.728 370.69C122.42 375.455 117.184 379.22 113.865 379.22C111.356 379.22 107.502 377.178 104.81 374.422C103.458 373.038 102.283 371.987 102.198 372.086C102.114 372.186 101.166 373.845 100.091 375.772C96.9045 381.487 93.9832 383.07 90.1125 381.181C88.1712 380.234 88.2431 380.177 85.4414 384.882C82.6403 389.586 80.5782 391.456 78.1903 391.456C74.6348 391.456 72.0854 388.616 70.6215 383.024C70.2744 381.696 69.7499 371.35 69.4564 360.031C69.0527 344.483 68.6142 337.275 67.6613 330.552C66.8757 325.005 66.4037 318.722 66.409 313.867C66.4166 306.312 66.3548 305.923 64.3339 300.797C63.1877 297.891 60.3111 290.099 57.9414 283.483C49.7108 260.505 46.7583 253.712 27.7559 214.031C9.36404 175.623 7.49527 171.925 5.08313 169.171C1.14111 164.669 -0.252106 161.517 0.0366516 157.753C0.656036 149.667 8.7865 144.391 27.3186 140.048C47.0641 135.419 61.2199 134.026 106.584 132.243C122.588 131.614 163.17 132.178 190.563 133.41C219.663 134.719 231.516 138.31 240.84 148.643C244.111 152.268 247.72 159.199 249.177 164.652C250.698 170.348 254.104 197.167 256.586 222.997C258.163 239.395 258.486 239.521 258.563 223.764C258.606 214.808 259.295 199.353 260.371 183.162C263.179 140.912 263.427 135.253 263.532 111.075C263.627 89.1871 263.549 87.3405 261.956 73.592C259.754 54.5913 259.185 31.5844 260.654 21.0557C262.25 9.63262 265.263 3.22918 270.08 1.02833C272.729 -0.181392 274.134 -0.279285 277.647 0.501609ZM58.2585 153.117C44.982 153.49 34.7182 155.446 35.4313 157.465C35.8509 158.653 39.2054 160.101 43.6124 160.997C49.3643 162.167 70.1023 162.265 94.8507 161.238C117.344 160.306 151.432 160.691 164.338 162.023C180.891 163.731 190.439 166.28 193.795 169.888C196 172.258 196.129 174.725 194.18 177.219C192.788 179.001 192.788 179.001 193.893 182.75C194.502 184.812 195.276 188.126 195.614 190.114C195.952 192.103 196.412 193.899 196.637 194.105C197.245 194.663 209.677 192.623 214.269 191.212C228.035 186.98 230.24 179.121 220.398 169.354C214.665 163.664 207.358 159.658 198.417 157.301C188.952 154.806 164.939 153.002 136.934 152.682C122.185 152.514 69.3155 152.806 58.2585 153.117ZM143.458 176.448C142.139 177.803 140.455 179.93 139.716 181.176C138.372 183.44 138.372 183.44 141.189 183.437C142.739 183.435 146.213 183.271 148.909 183.073C153.813 182.713 153.813 182.713 153.431 181.269C152.953 179.464 151.007 176.449 149.414 175.049C147.554 173.413 146.075 173.761 143.458 176.448ZM34.6852 176.529C34.6852 176.936 35.6794 177.53 36.8952 177.849C40.6475 178.833 41.017 178.531 38.6267 176.433C36.8115 174.841 36.2169 174.59 35.5327 175.126C35.0665 175.491 34.6852 176.123 34.6852 176.529ZM19.3626 175.969C19.3626 176.361 30.2989 181.215 31.1828 181.215C31.5359 181.215 31.7374 180.785 31.6301 180.26C31.4928 179.589 29.6853 178.777 25.5465 177.53C22.3075 176.553 19.5913 175.732 19.5099 175.704C19.4286 175.676 19.3626 175.796 19.3626 175.969ZM13.2737 177.739C13.7811 178.886 16.0541 183.579 18.3254 188.168C20.5967 192.756 25.0508 202.017 28.2232 208.747C31.3962 215.477 35.1037 223.236 36.4621 225.989C45.6415 244.591 52.7312 261.054 58.275 276.638C60.4579 282.776 63.3951 290.781 64.8019 294.427C67.359 301.057 67.359 301.057 68.1269 298.285C68.5488 296.76 69.5348 293.657 70.3174 291.39C71.74 287.267 71.74 287.267 66.6582 278.597C63.863 273.829 60.1461 267.091 58.3987 263.623C54.7125 256.308 47.6759 236.635 42.0525 217.924C39.892 210.735 37.0874 201.834 35.8197 198.143C34.5526 194.452 33.1795 189.866 32.7687 187.952C32.022 184.471 32.0221 184.471 27.9026 182.832C25.6367 181.931 21.3958 179.971 18.4786 178.475C15.5614 176.98 12.989 175.734 12.7627 175.705C12.5364 175.677 12.7663 176.592 13.2737 177.739ZM186.073 178.792C185.353 179.611 185.423 179.663 186.737 179.286C188.807 178.693 189.596 177.878 188.101 177.878C187.428 177.878 186.515 178.29 186.073 178.792ZM81.3002 181.139C80.639 182.015 80.2677 182.891 80.4739 183.086C80.6808 183.28 83.2243 183.44 86.1274 183.44C90.9794 183.44 91.34 183.366 90.5963 182.516C89.2025 180.922 86.3278 179.551 84.3765 179.549C82.9839 179.547 82.1918 179.957 81.3002 181.139ZM34.7913 181.354C34.9475 182.389 35.9223 182.914 40.4312 184.389C46.09 186.239 46.8732 186.079 44.7699 183.497C44.0297 182.588 42.3884 181.844 39.6262 181.165C34.4359 179.888 34.5703 179.883 34.7913 181.354ZM178.73 189.693C175.417 195.806 175.417 195.806 182.695 195.434C192.577 194.929 193.215 194.788 193.215 193.106C193.215 191.481 191.598 183.885 190.863 182.062C190.349 180.786 190.349 180.786 186.196 182.182C182.043 183.58 182.043 183.58 178.73 189.693ZM48.7255 184.691C49.3802 185.686 50.5453 186.801 51.315 187.17C52.7418 187.855 65.8732 190.272 71.9151 190.963C75.2583 191.344 75.2584 191.344 75.6691 188.757C75.8954 187.334 75.9821 186.08 75.8618 185.97C75.7422 185.86 72.1043 185.475 67.778 185.113C63.4517 184.751 57.8825 184.132 55.402 183.738C52.9215 183.343 50.1363 182.989 49.2134 182.952C47.535 182.884 47.535 182.884 48.7255 184.691ZM165.937 184.927C162.116 185.123 158.851 185.494 158.682 185.753C158.512 186.012 159.107 188.351 160.004 190.95C161.634 195.676 161.634 195.676 166.978 195.676C172.323 195.676 172.323 195.676 175.244 190.253C176.851 187.271 178.273 184.604 178.403 184.328C178.54 184.038 177.419 183.983 175.762 184.199C174.179 184.404 169.758 184.733 165.937 184.927ZM141.577 186.017C136.315 186.37 136.315 186.37 133.195 190.799C131.479 193.235 130.179 195.326 130.307 195.447C130.719 195.836 157.743 195.967 158.151 195.582C158.369 195.377 157.822 193.062 156.936 190.437C155.325 185.665 155.325 185.665 151.082 185.665C148.749 185.665 144.471 185.823 141.577 186.017ZM78.6394 188.584C78.3418 190.037 78.2468 191.366 78.4284 191.537C78.9128 191.994 94.5495 193.548 96.6352 193.346C98.4156 193.173 98.4155 193.173 96.0452 189.719C93.6744 186.265 93.6744 186.265 88.4894 186.067C78.7507 185.695 79.257 185.565 78.6394 188.584ZM35.4797 187.766C35.6759 188.921 37.1575 193.783 38.7734 198.57C40.3888 203.356 43.3237 212.61 45.2956 219.134C49.5223 233.117 56.738 253.815 59.4289 259.67C61.8322 264.9 72.439 283.555 73.0095 283.555C73.244 283.555 74.0314 282.241 74.7592 280.635C75.487 279.028 77.8001 274.301 79.8987 270.129C83.7152 262.543 83.7153 262.543 80.3631 257.168C72.9829 245.333 70.6345 238.574 70.6345 229.168C70.6345 223.347 70.6345 223.347 64.5367 214.101C61.1834 209.014 56.3391 201.475 53.7725 197.345C49.1056 189.836 49.1056 189.836 42.6318 187.802C39.0716 186.684 35.9258 185.745 35.6411 185.717C35.3565 185.688 35.284 186.61 35.4797 187.766ZM98.7632 188.905C102.081 194.361 101.227 193.947 110.414 194.56C114.952 194.863 120.521 195.109 122.79 195.108C126.916 195.106 126.916 195.106 129.715 191.044C131.254 188.811 132.514 186.812 132.514 186.602C132.514 186.392 124.553 186.221 114.823 186.221C97.1308 186.221 97.1308 186.221 98.7632 188.905ZM54.5163 193.312C61.8204 205.288 70.7883 219.022 71.3104 219.03C71.9923 219.041 73.8245 207.644 74.4963 199.214C74.9018 194.131 74.9018 194.131 70.5578 193.479C68.1693 193.121 63.6951 192.372 60.6158 191.815C52.2691 190.306 52.6286 190.217 54.5163 193.312ZM220.143 195.259C213.939 202.148 192.786 234.504 191.41 239.209C190.602 241.973 186.067 269.699 186.265 270.667C186.471 271.677 195.357 260.03 200.933 251.442C203.071 248.15 208.12 239.323 212.152 231.829C220.875 215.618 224.535 206.279 224.927 199.241C225.167 194.92 224.558 192.339 223.296 192.339C223.008 192.339 221.59 193.653 220.143 195.259ZM212.789 194.359C210.937 194.868 206.505 195.696 202.939 196.199C196.457 197.113 196.457 197.113 196.052 205.433C195.83 210.009 195.107 217.241 194.444 221.504C193.781 225.767 193.315 229.327 193.408 229.414C193.5 229.502 195.328 226.639 197.47 223.053C201.384 216.503 213.11 199.379 216.273 195.596C218.174 193.322 218.396 192.621 217.062 193.104C216.564 193.285 214.641 193.849 212.789 194.359ZM77.4719 197.484C77.2963 199.09 76.9898 202.156 76.7912 204.297C76.592 206.439 75.9214 211.031 75.3002 214.503C74.679 217.975 74.1705 221.53 74.1705 222.402C74.1705 223.461 76.0934 226.822 79.9477 232.498C88.1134 244.523 90.9204 248.49 91.2758 248.503C91.4455 248.51 93.4221 245.573 95.6687 241.979C97.9146 238.385 102.217 231.52 105.228 226.723C110.704 218.002 110.704 218.002 105.637 207.812C102.85 202.208 100.319 197.373 100.013 197.067C99.5376 196.591 85.3489 194.904 79.6642 194.648C77.8237 194.566 77.786 194.614 77.4719 197.484ZM103.637 197.331C103.637 198.304 112.053 214.587 112.557 214.587C113.127 214.587 124.526 198.52 124.185 198.197C123.973 197.998 111.016 197.06 105.847 196.87C104.631 196.825 103.637 197.033 103.637 197.331ZM180.208 198.207C173.977 198.551 173.977 198.551 170.295 205.595C166.612 212.64 166.612 212.64 169.234 222.652C170.676 228.158 172.992 237.982 174.38 244.482C175.769 250.983 177.061 256.296 177.252 256.288C177.443 256.282 180.075 252.118 183.103 247.037C188.584 237.835 188.613 237.767 190.045 230.502C192.331 218.895 194.416 199.285 193.511 197.902C193.225 197.466 191.983 197.352 189.761 197.557C187.933 197.725 183.634 198.018 180.208 198.207ZM162.57 198.729C162.57 199.273 165.071 207.648 165.379 208.135C165.71 208.657 167.108 206.327 169.434 201.377C170.806 198.457 170.806 198.457 166.688 198.457C164.423 198.457 162.57 198.58 162.57 198.729ZM121.176 207.634C117.694 212.529 114.693 217.053 114.507 217.688C114.275 218.48 116.578 223.446 121.856 233.539C132.216 253.347 134.193 256.644 135.127 255.671C135.529 255.253 139.397 249.53 143.724 242.953C148.051 236.376 152.824 229.242 154.332 227.101C159.308 220.035 163.16 213.462 163.16 212.037C163.16 210.899 161.673 205.239 159.846 199.422C159.56 198.51 158.399 198.45 143.522 198.587C127.505 198.735 127.505 198.735 121.176 207.634ZM158.993 224.876C141.698 250.768 136.64 258.599 136.643 259.478C136.644 260.025 139.316 265.103 142.58 270.762C145.844 276.422 149.604 283.026 150.936 285.44C153.77 290.574 152.515 291.342 162.204 278.549C170.808 267.187 174.357 261.659 174.357 259.615C174.357 256.701 168.204 228.455 165.52 219.047C165.136 217.7 164.621 216.882 164.332 217.158C164.052 217.426 161.649 220.9 158.993 224.876ZM106.132 230.295C103.221 234.962 99.2147 241.396 97.2292 244.591C95.2432 247.787 93.6184 250.808 93.6184 251.305C93.6184 252.76 116.659 284.667 117.71 284.667C117.944 284.667 119.182 282.617 120.462 280.111C121.742 277.605 124.978 272.073 127.652 267.817C130.327 263.561 132.514 259.742 132.514 259.33C132.514 258.919 130.74 255.503 128.57 251.74C126.402 247.978 121.876 239.576 118.514 233.07C115.152 226.563 112.182 221.368 111.913 221.524C111.645 221.681 109.044 225.628 106.132 230.295ZM73.7874 235.629C74.2659 238.024 75.4947 241.965 76.5177 244.388C78.5509 249.201 84.1142 258.614 85.102 258.913C85.442 259.016 86.6106 257.363 87.6991 255.24C89.6781 251.38 89.6781 251.38 83.7836 242.855C80.5423 238.167 76.8543 232.83 75.589 230.994C73.2882 227.657 73.2882 227.657 73.1026 229.466C73.0006 230.461 73.3082 233.234 73.7874 235.629ZM181.989 254.024C177.733 260.924 177.733 260.924 179.102 269.44C180.176 276.123 180.63 277.831 181.212 277.375C182.128 276.658 182.693 274.02 184.95 259.917C185.929 253.798 186.882 248.167 187.068 247.402C187.594 245.236 186.651 246.465 181.989 254.024ZM88.955 258.426C86.9613 262.316 86.9613 262.316 92.8381 270.293C96.0706 274.681 101.856 282.63 105.694 287.957C111.305 295.744 112.758 297.434 113.103 296.578C116.847 287.283 117.041 288.805 111.105 280.962C108.132 277.034 102.546 269.385 98.6925 263.964C94.8383 258.543 91.5192 254.204 91.317 254.322C91.1143 254.44 90.0511 256.287 88.955 258.426ZM129.283 270.226C124.945 277.175 120.138 286.258 120.138 287.504C120.138 287.83 122.349 290.766 125.052 294.029C127.755 297.293 131.478 301.902 133.326 304.273C135.174 306.644 136.921 308.583 137.208 308.583C137.765 308.583 151.373 292.657 151.372 292.007C151.371 291.652 148.732 286.954 138.432 268.972C136.379 265.388 134.499 262.571 134.254 262.714C134.009 262.857 131.773 266.237 129.283 270.226ZM170.206 272.153C167.837 275.518 163.422 281.473 160.394 285.387C154.888 292.503 154.888 292.503 157.264 296.344C158.572 298.457 159.942 300.361 160.311 300.576C160.696 300.8 161.505 300.279 162.212 299.352C162.889 298.464 166.144 294.687 169.444 290.959C179.009 280.156 178.134 282.104 177.034 274.048C175.981 266.336 175.624 264.873 174.965 265.561C174.716 265.822 172.573 268.788 170.206 272.153ZM82.9391 270.067C78.1396 279.725 75.3491 285.961 75.3491 287.029C75.3491 288.701 90.4855 312.057 99.3897 324.126C102.958 328.962 103.301 329.271 103.705 328.02C104.426 325.789 110.841 303.405 111.155 302.025C111.365 301.103 110.344 299.179 107.466 295.072C101.982 287.248 85.8168 265.2 85.564 265.2C85.4509 265.2 84.2693 267.391 82.9391 270.067ZM171.624 292.454C165.766 299.026 162.57 303.011 162.57 303.745C162.57 304.819 167.561 310.409 169.728 311.762C172.364 313.408 174.389 313.253 175.362 311.328C177.464 307.176 179.067 284.313 177.114 286.356C176.685 286.803 174.215 289.548 171.624 292.454ZM116.339 295.936C114.615 300.63 114.615 300.63 121.035 310.168C124.566 315.415 127.618 319.707 127.816 319.707C128.292 319.707 134.223 312.712 134.662 311.632C134.872 311.118 133.345 308.698 130.718 305.378C122.718 295.27 118.881 290.765 118.472 291.004C118.247 291.135 117.287 293.355 116.339 295.936ZM72.1579 294.112C70.6286 299.255 69.5489 305.173 69.8925 306.525C71.1018 311.286 85.5115 340.238 92.5028 351.954C94.5802 355.434 95.0587 355.933 95.4382 355.013C96.5197 352.39 101.869 334.333 101.869 333.305C101.869 332.682 99.4634 328.804 96.5238 324.688C90.2303 315.877 82.948 305.104 77.6622 296.784C75.5795 293.507 73.712 290.816 73.5116 290.805C73.3112 290.794 72.7018 292.282 72.1579 294.112ZM146.658 301.979C143.579 305.665 140.568 309.292 139.966 310.039C138.874 311.397 138.874 311.397 141.977 315.691C147.101 322.784 146.341 322.709 150.149 316.502C151.976 313.523 154.607 309.512 155.996 307.587C157.385 305.662 158.438 303.785 158.336 303.416C157.942 301.991 153.405 295.256 152.846 295.266C152.522 295.271 149.737 298.292 146.658 301.979ZM112.913 305.663C112.753 306.198 110.984 312.447 108.981 319.548C105.34 332.458 105.34 332.458 108.399 336.79C110.082 339.172 111.66 341.332 111.907 341.591C112.152 341.849 113.365 340.244 114.602 338.023C115.839 335.802 118.783 331.461 121.144 328.376C123.506 325.291 125.44 322.497 125.441 322.169C125.443 321.324 114.246 304.69 113.674 304.69C113.416 304.69 113.073 305.128 112.913 305.663ZM157.373 310.391C153.599 315.683 149.016 323.35 149.016 324.372C149.016 324.955 165.419 349.475 167.062 351.348C167.686 352.059 171.6 336.235 173.734 324.373C175.325 315.532 175.35 315.814 172.972 315.814C170.504 315.814 167.247 313.65 163.424 309.47C161.858 307.759 160.503 306.359 160.413 306.359C160.322 306.359 158.955 308.173 157.373 310.391ZM133.157 317.832C131.182 320.166 129.568 322.287 129.568 322.545C129.568 322.96 136.121 333.258 138.182 336.081C138.901 337.067 139.224 336.645 141.93 331.191C143.558 327.909 144.89 324.957 144.89 324.631C144.89 324.049 137.376 313.589 136.958 313.589C136.841 313.589 135.13 315.499 133.157 317.832ZM69.662 315.675C69.8194 316.21 70.1153 319.276 70.3192 322.488C71.1142 335.001 73.1367 344.818 77.1377 355.582C80.1215 363.607 86.2388 374.77 87.6532 374.77C88.2596 374.77 91.937 366.767 93.2548 362.579C94.1069 359.872 94.1069 359.872 91.1538 354.946C87.1617 348.285 74.8741 324.972 72.3653 319.297C71.2515 316.778 70.1229 314.713 69.8583 314.709C69.5931 314.705 69.5053 315.14 69.662 315.675ZM122.927 330.432C118.488 336.342 114.063 343.806 114.347 344.906C114.668 346.152 126.258 363.09 126.79 363.09C127.602 363.09 137.229 342.181 137.229 340.416C137.229 339.952 135.718 337.293 133.872 334.506C132.026 331.72 129.901 328.502 129.15 327.355C128.399 326.208 127.564 325.269 127.295 325.269C127.025 325.269 125.06 327.592 122.927 330.432ZM140.784 340.008C140.801 341.513 159.273 368.649 160.281 368.652C160.748 368.652 163.87 362.014 165.19 358.215C166.207 355.286 166.207 355.286 164.578 352.653C163.682 351.204 159.375 344.889 155.007 338.618C147.065 327.216 147.065 327.216 143.921 333.334C142.192 336.699 140.78 339.702 140.784 340.008ZM100.437 348.234C97.1161 359.241 97.1161 359.241 99.0408 362.278C100.1 363.948 101.116 365.315 101.301 365.315C101.485 365.315 102.126 364.001 102.725 362.395C103.323 360.789 105.374 356.161 107.283 352.112C110.754 344.748 110.754 344.748 107.726 340.514C106.062 338.186 104.487 336.494 104.228 336.754C103.969 337.014 102.263 342.18 100.437 348.234ZM135.733 351.412C133.895 355.532 131.623 360.338 130.685 362.093C129.746 363.848 128.978 365.571 128.978 365.923C128.978 367.066 134.174 373.473 137.066 375.895C141.882 379.931 145.817 380.743 150.605 378.691C153.215 377.573 158.445 372.855 158.445 371.618C158.445 371.217 157.201 369.346 155.682 367.461C153.266 364.462 146.163 354.003 141.179 346.104C140.272 344.666 139.428 343.588 139.302 343.706C139.177 343.824 137.571 347.292 135.733 351.412ZM109.645 353.242C106.728 359.493 103.637 367.311 103.637 368.436C103.637 369.508 108.741 374.644 110.809 375.653C113.079 376.761 115.251 376.63 117.631 375.242C119.837 373.955 124.853 367.949 124.853 366.595C124.853 365.631 113.134 348.073 112.491 348.073C112.252 348.073 110.971 350.399 109.645 353.242ZM72.1007 361.283C72.7278 381.481 73.267 385.157 76.0045 387.908C77.6428 389.553 78.3482 389.566 79.9182 387.98C81.434 386.449 85.9571 379.206 85.9571 378.311C85.9571 377.954 85 376.324 83.8308 374.687C80.1386 369.52 76.064 361.061 72.6865 351.549C71.9528 349.484 71.809 351.876 72.1007 361.283ZM165.311 365.012C162.592 371.105 162.592 371.105 163.907 372.434C166.281 374.834 169.967 376.525 172.41 376.335C174.651 376.161 174.651 376.161 174.578 373.102C174.531 371.107 173.957 368.882 172.926 366.705C171.208 363.074 168.459 358.444 168.195 358.736C168.105 358.836 166.807 361.661 165.311 365.012ZM93.0296 370.466C90.5126 376.265 90.0818 377.715 90.677 378.392C92.7485 380.747 96.7059 377.725 98.9465 372.077C100.125 369.105 100.125 369.105 98.2818 366.065C97.2681 364.392 96.3647 363.102 96.2751 363.196C96.1849 363.291 94.7245 366.562 93.0296 370.466Z" fill="white"/>
</svg> 