<svg width="871" height="890" viewBox="0 0 871 890" fill="none" xmlns="http://www.w3.org/2000/svg">
<path fill-rule="evenodd" clip-rule="evenodd" d="M572.157 2.56791C567.971 3.88626 558.867 8.33259 551.925 12.448C531.973 24.2781 518.915 42.3072 513.315 65.76C506.307 95.1096 520.091 125.505 547.978 142.191C558.317 148.378 561.231 149.356 571.184 149.987C577.444 150.383 584.894 149.932 587.739 148.983C591.907 147.595 592.913 147.708 592.913 149.566C592.913 153.949 568.97 159.958 545.866 161.373C515.78 163.214 476.931 156.287 442.288 142.901C412.735 131.482 397.324 128.025 380.663 129.073C363.095 130.177 348.04 134.944 332.08 144.452C312.158 156.32 300.946 170.448 300.946 183.683C300.946 191.245 302.904 189.828 304.895 180.826C309.316 160.838 336.637 141.524 370.689 134.312C388.789 130.479 407.925 133.903 440.636 146.829C490.462 166.518 544.724 171.189 584.339 159.202L593.062 156.564L596.793 160.86C602.263 167.161 606.927 168.713 620.331 168.693C641.942 168.661 694.081 156.739 718.832 146.171C724.54 143.733 746.022 131.682 766.571 119.393C787.119 107.102 809.847 94.6267 817.077 91.6692C833.882 84.7934 850.438 83.3364 861.968 87.7158C866.232 89.3349 870.08 90.2255 870.52 89.6958C872.274 87.5771 869.27 85.41 860.696 82.6078C840.055 75.8607 816.785 83.6321 767.794 113.635C728.055 137.972 716.769 143.461 691.157 150.916C648.128 163.441 611.579 167.888 603.583 161.572C598.206 157.326 598.925 154.024 606.026 150.348C627.63 139.165 645.402 117.986 653.546 93.7161C657.753 81.1776 657.768 59.1115 653.577 45.5454C649.823 33.3862 635.889 15.9653 624.738 9.4855C608.59 0.10334 588.406 -2.55343 572.157 2.56791ZM612.977 8.63C623.697 12.8591 632.558 19.7516 640.559 30.0795C648.392 40.1918 652.295 50.7052 652.756 62.9346L653.105 72.1897L646.61 74.2182C643.037 75.3344 639.153 77.2108 637.979 78.3871C634.737 81.637 632.364 79.5668 630.439 71.8088C629.482 67.9473 626.872 61.2068 624.643 56.8307C621.696 51.046 620.587 46.7635 620.587 41.1576C620.587 31.2491 616.472 27.2055 608.453 29.234C605.614 29.9508 598.114 30.7562 591.786 31.0235C574.066 31.7704 564.424 36.4506 553.755 49.4837C546.032 58.9177 539.322 74.3151 538.085 85.4501C537.312 92.4078 537.619 93.7394 540.919 97.7246C543.793 101.195 545.458 101.962 548.357 101.155C552.689 99.9469 559.797 90.9223 564.898 80.1533C571.008 67.2488 578.983 55.5826 586.438 48.6366C596.961 38.8334 599.741 37.9194 606.591 42.0114C609.722 43.8829 612.285 46.553 612.285 47.9448C612.285 49.3367 606.886 57.327 600.285 65.7016C580.438 90.8872 572.863 108.485 576.361 121.284C578.107 127.671 581.209 130.297 586.941 130.244C594.501 130.172 603.154 123.605 616.033 108.164C625.851 96.3945 628.973 93.5089 629.634 95.5892C631.49 101.427 625.376 112.641 614.222 123.859C597.565 140.614 593.917 143.142 583.286 145.307C571.019 147.805 561.218 145.569 548.041 137.267C528.597 125.014 515.424 102.971 515.424 82.6897C515.424 64.7241 522.084 47.0342 534.322 32.4906C541.56 23.8888 557.655 12.5148 568.562 8.2958C582.654 2.84362 598.614 2.96395 612.977 8.63ZM616.447 36.7347C617.608 39.353 617.489 40.3088 615.916 41.039C613.487 42.1635 606.453 36.9736 607.536 34.8566C608.967 32.0578 614.932 33.316 616.447 36.7347ZM591.529 36.449C591.529 37.2243 587.949 41.3664 583.573 45.6523C575.609 53.4538 570.191 61.4876 559.184 81.8175C552.399 94.351 547.383 98.7906 543.922 95.3235C535.92 87.3031 551.285 52.194 567.175 42.1902C576.376 36.3988 591.529 32.8248 591.529 36.449ZM623.951 65.339C626.667 71.8957 628.89 79.2727 628.89 81.7306C628.89 85.1944 625.695 89.9866 614.706 103.003C599.697 120.783 594.227 125.268 587.545 125.268C577.69 125.268 576.496 112.522 584.786 95.8147C590.035 85.2362 614.341 53.4187 617.174 53.4187C618.185 53.4187 621.235 58.7824 623.951 65.339ZM650.353 80.1834C651.566 82.5544 646.334 92.2824 640.55 98.4163C634.069 105.289 632.515 105.031 633.652 97.2801C635.183 86.8503 635.761 85.5319 640.368 81.9679C645.223 78.2134 648.999 77.5383 650.353 80.1834ZM641.923 110.425C636.424 120.006 624.6 132.58 613.808 140.321C608.697 143.989 604.082 146.99 603.556 146.99C601.009 146.99 603.132 143.526 607.788 140.084C610.642 137.972 620.104 128.018 628.816 117.961C644.313 100.074 649.612 97.0261 641.923 110.425ZM227.769 188.761C225.565 192.435 221.075 203.338 217.792 212.989C214.51 222.638 211.416 230.535 210.917 230.535C210.416 230.535 209.644 226.281 209.199 221.081C208.27 210.204 205.476 205.34 202.102 208.72C198.643 212.189 197.154 221.392 195.109 251.965C192.9 284.973 190.365 296.454 181.689 312.727C170.245 334.195 148.519 362.201 121.774 389.967C108.017 404.248 104.783 406.704 106.387 401.658C113.501 379.271 99.7589 357.073 74.9611 350.892C48.698 344.348 17.9184 366.166 4.3163 400.968C-2.79606 419.166 -0.9723 440.929 8.70688 453.394C13.8682 460.041 22.2799 464.382 30.0813 464.426C33.697 464.446 36.654 464.954 36.654 465.554C36.654 466.155 33.6043 470.54 29.8765 475.3C21.6959 485.743 16.6799 497.244 12.8511 514.333C10.5375 524.655 9.98129 532.116 9.96468 553.021C9.93009 594.842 13.597 615.297 30.0357 664.972C38.8279 691.536 42.7369 706.519 46.6044 728.466C52.4105 761.415 49.9212 841.05 42.1488 870.987C38.8403 883.731 38.8375 883.861 41.9329 883.861C45.5389 883.861 48.4808 875.294 53.898 849.022C61.5791 811.776 66.6837 781.854 72.7569 738.492C80.0602 686.339 86.9207 653.506 96.6926 623.938C105.068 598.598 105.182 598.135 102.997 598.135C99.8115 598.135 86.5042 640.682 80.0035 671.655C77.3993 684.062 72.4608 714.138 69.0291 738.492C62.0911 787.725 55.0189 828.677 53.0138 831.227C52.185 832.283 52.1158 825.818 52.8257 813.683C56.213 755.819 51.3119 715.49 35.2177 668.791C32.2026 660.044 29.7354 651.833 29.7354 650.547C29.7354 649.003 32.1389 650.204 36.809 654.082C48.3493 663.668 56.1881 661.829 67.2621 646.933C77.6899 632.905 88.8566 601.76 97.5325 562.502C104.785 529.685 105.901 507.906 100.33 507.906C98.836 507.906 97.2475 509.778 96.4311 512.501C95.6742 515.029 92.2633 526.495 88.8524 537.983C82.0458 560.906 76.861 574.743 75.0788 574.743C72.6393 574.743 72.2822 568.802 73.8154 553.726C76.0778 531.506 79.569 521.487 89.5291 508.63C94.1078 502.718 98.6713 497.881 99.6676 497.881C100.664 497.881 104.945 502.924 109.182 509.086C117.151 520.679 125.918 528.98 132.055 530.744C137.773 532.387 138.788 534.246 141.24 547.552C144.192 563.573 143.381 578.841 138.153 605.654C132.819 633.016 132.829 652.092 138.182 670.766C142.011 684.117 153.521 717.346 169.457 761.049C174.148 773.915 182.355 797.485 187.695 813.427C201.86 855.718 211.84 880.178 213.911 877.677C214.719 876.701 211.863 867.648 206.335 853.668C201.455 841.326 194.014 820.701 189.801 807.834C185.587 794.969 178.302 773.915 173.61 761.049C134.098 652.701 133.76 651.061 141.882 606.973C147.596 575.957 148.236 562.393 144.78 545.535C142.342 533.645 142.259 531.588 144.008 526.534C145.086 523.416 145.969 519.454 145.969 517.728C145.969 516.002 146.853 514.59 147.933 514.59C151.25 514.59 165.713 533.523 171.687 545.685C184.45 571.671 188.442 590.984 193.058 649.098C202.696 770.409 208.837 816.832 221.313 862.65C227.591 885.711 232.131 893.355 236.778 888.698C240.243 885.224 239.206 869.159 232.468 822.037C227.995 790.748 221.614 742.804 216.463 701.779C212.086 666.918 207.272 642.864 199.066 614.844C194.631 599.703 193.847 594.783 193.335 578.92C192.451 551.46 196.053 533.867 207.053 511.915C213.612 498.828 233.743 474.351 253.207 455.794C276.526 433.562 284.494 424.374 294.764 407.86C305.997 389.796 311.413 377.388 320.84 348.117C330.451 318.275 335.835 297.773 341.149 270.787C347.69 237.561 349.93 235.641 378.425 238.826C392.376 240.385 397.335 240.365 401.856 238.729C407.506 236.686 407.665 236.743 412.731 242.703C423.457 255.325 434.141 256.391 435.908 245.017C437.404 235.382 428.547 219.942 416.725 211.577C405.661 203.747 396.13 201.558 377.757 202.626C351.866 204.131 339.275 210.481 324.977 229.239C316.855 239.896 312.163 248.761 299.537 277.321C283.598 313.377 259.53 361.583 250.541 375.455C246.393 381.858 236.579 394.129 228.731 402.726C220.884 411.324 209.774 424.961 204.042 433.029C190.356 452.297 185.046 456.748 164.261 466.377C145.729 474.964 141.114 478.894 135.611 490.783C132.369 497.787 132.333 498.288 134.149 510.874C135.173 517.972 135.723 524.343 135.372 525.033C133.075 529.551 122.011 520.381 111.75 505.455L103.849 493.961L111.373 486.313C128.199 469.208 138.282 456.208 147.709 439.474C160.837 416.167 198.427 355.22 213.716 332.451C237.217 297.455 249.784 274.129 257.204 251.734C262.076 237.03 261.979 233.877 256.654 233.877H252.492L256.764 224.735C263.435 210.463 260.775 204.561 251.907 213.961C249.146 216.889 246.556 218.882 246.149 218.393C245.744 217.901 247.01 213.691 248.964 209.036C256.83 190.288 250.47 183.392 241.216 200.636C238.803 205.134 236.311 208.813 235.678 208.813C234.234 208.813 234.227 208.997 236.042 198.778C237.761 189.097 236.827 182.079 233.817 182.079C232.695 182.079 229.973 185.085 227.769 188.761ZM232.407 197.535C231.869 201.44 230.323 209.899 228.973 216.332C227.622 222.765 226.799 228.592 227.145 229.282C228.909 232.808 232.103 229.412 236.572 219.257C247.329 194.813 249.837 196.068 239.856 220.901C235.611 231.459 233.102 239.69 233.624 241.334C234.913 245.391 237.484 242.972 245.54 230.117C249.427 223.915 252.899 218.839 253.255 218.839C254.833 218.839 253.447 222.348 246.981 234.712C243.175 241.989 240.062 248.913 240.062 250.1C240.062 254.165 244.79 252.255 250.036 246.07C254.847 240.397 255.283 240.191 255.283 243.6C255.283 248.629 245.496 271.815 236.466 288.182C232.409 295.534 222.111 312.076 213.583 324.942C194.263 354.087 158.073 412.691 144.81 436.309C134.825 454.091 120.983 471.596 108.013 482.843C97.4896 491.969 82.3835 509.716 78.7055 517.277C74.1088 526.726 71.4589 538.33 70.0406 555.235C68.733 570.806 69.209 577.02 71.917 579.734C76.7766 584.603 81.5629 575.75 90.7703 544.868C94.4358 532.572 97.7692 522.109 98.1787 521.614C102.68 516.179 97.1658 551.061 88.411 583.41C79.8111 615.185 70.4073 637.505 61.586 647.083C57.8085 651.183 53.1965 654.891 51.3381 655.319C46.6265 656.407 40.6931 653.028 34.7832 645.892C28.2991 638.062 25.122 630.382 21.1881 613.028C18.3058 600.314 18.0027 595.458 18.0263 562.211C18.0539 521.284 19.3782 511.586 27.2668 494.539C34.0886 479.795 39.9999 472.282 53.6185 461.052C70.0641 447.489 84.9697 433.803 95.6188 422.488C100.271 417.545 110.201 407.484 117.684 400.133C136.566 381.584 161.944 351.735 172.443 335.724C192.452 305.22 196.581 292.469 198.647 254.803C200.193 226.64 201.305 218.565 203.775 217.571C204.983 217.084 205.469 219.711 205.469 226.736C205.469 238.38 208.182 244.683 211.42 240.561C212.504 239.182 215.405 232.039 217.867 224.687C224.279 205.542 230.545 190.433 232.071 190.433C232.85 190.433 232.987 193.331 232.407 197.535ZM398.499 207.746C412.448 212.252 422.994 220.952 430.116 233.832C435.107 242.856 431.504 250.949 424.134 247.263C419.909 245.149 408.877 231.915 408.877 228.961C408.877 226.356 398.877 218.839 395.41 218.839C390.686 218.839 391.618 223.056 397.224 227.05C406.372 233.568 403.201 234.712 375.999 234.712H350.972L346.833 239.483C343.568 243.247 342.055 247.468 339.655 259.534C331.175 302.13 321.082 338.671 308.836 371.107C297.777 400.4 281.917 422.618 251.132 451.944C220.619 481.011 202.613 506.142 195.185 530.024C192.405 538.963 190.114 552.523 188.475 569.73C188.164 572.998 186.656 570.45 181.552 558.034C172.98 537.177 165.33 525.185 151.283 510.583C144.192 503.211 139.565 497.102 139.282 494.736C138.952 491.959 140.517 488.926 144.899 483.857C149.702 478.299 154.106 475.48 165.947 470.386C185.277 462.07 192.855 455.675 207.784 435.078C214.502 425.809 225.565 412.28 232.369 405.013C239.171 397.746 248.557 385.97 253.224 378.842C262.795 364.226 285.686 318.56 301.522 282.49C322.332 235.093 334.568 218.653 354.954 210.701C366.6 206.158 388.901 204.646 398.499 207.746ZM79.2369 356.732C87.5226 359.703 96.8296 367.765 101.451 375.974C104.105 380.69 104.598 383.348 104.127 390.425C103.106 405.795 96.0934 414.857 65.2446 440.664C46.704 456.175 40.8232 459.366 30.704 459.413C21.3763 459.457 16.5941 456.903 10.6275 448.696C5.1161 441.117 2.90905 431.185 3.9759 418.761C6.04596 394.642 26.6773 366.215 47.8428 358.318C51.9636 356.781 55.957 355.282 56.7181 354.984C60.515 353.507 72.9298 354.47 79.2369 356.732ZM140.977 512.22C142.273 516.294 141.972 521.273 140.434 521.273C139.673 521.273 139.042 520.334 139.031 519.185C139.021 518.037 138.636 515.404 138.178 513.337C137.237 509.096 139.675 508.123 140.977 512.22ZM200.503 633.729C206.136 656.031 209.494 674.805 213.189 704.661C218.047 743.924 225.721 801.914 229.717 829.556C231.577 842.422 233.686 859.34 234.405 867.152C237.657 902.495 226.811 876.604 216.434 824.255C209.361 788.576 204.852 749.647 197.882 664.136C196.684 649.432 195.323 633.455 194.86 628.629C193.567 615.159 196.476 617.787 200.503 633.729Z" fill="white"/>
</svg> 