<svg width="213" height="483" viewBox="0 0 213 483" fill="none" xmlns="http://www.w3.org/2000/svg">
  <path fill-rule="evenodd" clip-rule="evenodd" d="M6.4288 0.612342C9.01752 1.78661 14.3889 6.6841 19.1343 12.1968C21.8006 15.2944 26.1792 19.8253 28.8643 22.2655C37.0808 29.7309 39.9442 33.9355 41.7632 41.2042C43.7826 49.2762 47.5256 53.7588 56.5167 58.8732C64.7735 63.5703 68.2682 66.2335 79.4623 76.3596C92.5783 88.2245 100.935 95.3184 110.344 102.573C124.024 113.123 127.069 116.441 129.139 123.055C130.993 128.979 130.239 166.528 127.936 182.929C127.01 189.525 125.031 197.71 120.387 214.149C116.551 227.725 115.552 232.463 114.701 241.128C114.058 247.671 113.004 251.264 111.341 252.585C110.23 253.468 110.239 253.513 112.702 259.136C115.865 266.357 117.941 273.057 121.271 286.793C125.079 302.496 126.573 312.286 127.148 325.284C128.112 347.097 127.799 353.416 125.465 359.236C124.494 361.656 124.427 362.369 124.953 364.59C125.288 365.999 126.316 368.126 127.238 369.317C130.176 373.113 132.129 373.824 142.282 374.796C160.921 376.581 166.115 377.706 173.117 381.475C179.669 385.001 185.071 390.065 191.894 399.074C201.861 412.233 211.778 426.779 212.739 429.646C213.429 431.707 212.688 433.73 211.243 433.73C210.717 433.73 207.635 431.793 204.394 429.425C197.337 424.269 192.799 421.754 180.9 416.402C161.755 407.792 157.276 406.766 139.543 406.921C131.919 406.988 125.435 406.751 123.282 406.327C117.776 405.243 110.602 402.746 105.992 400.308C101.936 398.165 101.787 398.134 100.739 399.211C100.145 399.82 99.0355 401.582 98.2733 403.125C96.4365 406.844 90.1484 423.109 86.107 434.595C84.3236 439.664 81.5409 447.057 79.9228 451.025C75.4629 461.962 73.848 466.863 72.6759 473.021C72.0883 476.109 71.2539 478.941 70.8219 479.314C70.3894 479.687 70.0361 480.409 70.0361 480.92C70.0361 482.153 68.8085 483.257 68.0377 482.716C67.6994 482.479 66.683 478.255 65.7797 473.328C63.6855 461.905 62.6125 458.38 58.3744 449.004C49.4292 429.213 37.1218 416.089 22.231 410.462C19.4187 409.4 16.1712 407.676 14.8876 406.565C12.8553 404.805 12.4691 404.67 11.5831 405.405C11.031 405.862 10.1552 406.237 9.63699 406.237C7.90149 406.237 7.95963 404.935 9.78455 402.918C15.6369 396.451 19.0675 385.071 20.7427 366.566C21.5216 357.968 21.5216 356.04 20.7459 344.681C19.9148 332.507 19.2405 327.371 16.5128 312.454C12.9997 293.241 13.3127 279.62 17.4974 269.559C18.9534 266.059 20.4357 263.894 24.7152 259.019C27.6777 255.646 30.3419 252.885 30.6355 252.885C31.2043 252.885 35.0243 248.069 35.0243 247.352C35.0243 247.119 33.0243 246.803 30.5805 246.65C24.9263 246.296 20.9339 244.114 15.7134 238.528C6.05609 228.195 1.10059 214.276 1.79596 199.438C2.38039 186.969 5.34991 178.898 11.8739 172.046C21.3794 162.064 35.3544 157.64 55.1797 158.337C62.5888 158.597 64.4708 158.873 68.1928 160.239C75.3869 162.882 82.316 168.721 86.5578 175.716C88.6192 179.115 88.6192 179.115 88.9839 176.44C89.1843 174.969 89.6362 170.603 89.9874 166.739C90.3391 162.875 90.9629 157.651 91.3733 155.131C93.3243 143.161 91.3189 130.442 86.0532 121.383C82.7863 115.764 65.5045 96.4389 52.5302 83.8971C32.7711 64.7977 25.0491 54.9441 19.3088 41.5072C17.3255 36.8651 14.9178 32.3348 13.15 29.9184C10.2025 25.8916 9.7506 24.5805 10.8704 23.3103C11.2965 22.827 11.3219 22.3535 10.9497 21.8134C10.6502 21.3796 8.39325 18.1391 5.93436 14.6132C0.0949249 6.23871 -1.06961 3.09346 0.858734 0.905602C1.79597 -0.156864 4.42613 -0.29555 6.4288 0.612342ZM2.70789 3.7643C2.71112 5.07543 4.66693 8.25916 10.6022 16.6141C13.7576 21.0558 16.5774 25.0387 16.8682 25.4651C17.2345 26.0009 17.1052 26.6064 16.4502 27.4275C15.5405 28.5682 15.5615 28.6941 16.9921 30.6217C17.8109 31.7257 19.8626 35.9291 21.5512 39.9621C26.8396 52.5919 34.3375 62.525 49.837 77.4361C70.1034 96.932 83.2915 111.54 88.3058 120.042C91.1396 124.848 93.2106 131.139 94.3046 138.264C95.0689 143.242 94.7549 150.507 93.3119 161.24C91.1417 177.386 91.2176 183.073 93.7412 193.316C94.5572 196.63 94.9671 200.072 95.014 204.008C95.0916 210.536 94.4673 212.459 90.372 218.307C86.037 224.498 83.9708 231.718 84.8482 237.608C85.229 240.163 85.229 240.163 86.825 238.429C88.2524 236.877 88.8002 236.694 92.0213 236.694C97.0878 236.694 99.9431 238.413 105.496 244.807C108.466 248.227 110.164 249.769 110.519 249.367C110.813 249.034 111.292 246.734 111.584 244.255C112.887 233.182 114.422 225.526 117.449 215.005C124.305 191.169 125.527 184.493 127.155 161.962C127.93 151.238 127.906 130.03 127.115 126.011C125.815 119.407 122.933 115.953 110.89 106.563C98.9827 97.2772 92.2912 91.6459 80.0009 80.5673C67.2227 69.0494 63.7453 66.3771 54.9541 61.3177C45.7454 56.0182 41.0948 50.39 39.3867 42.4786C38.0504 36.2853 34.4162 30.8605 27.7526 25.1095C25.9751 23.5754 21.3697 18.8331 17.5184 14.571C13.6671 10.3089 9.31699 5.96194 7.85188 4.91108C5.11612 2.94866 2.70412 2.41102 2.70789 3.7643ZM33.7359 163.058C14.1605 167.826 4.32164 180.808 4.32164 201.869C4.32164 214.334 8.8053 226.715 16.4669 235.405C21.743 241.389 25.9191 243.682 31.7256 243.781C40.2006 243.926 40.352 246.003 32.5686 255.329C29.0798 259.509 27.1423 264.054 25.8157 271.173C25.1418 274.788 25.3615 290.564 26.1043 291.927C26.4135 292.495 26.9344 291.852 27.8598 289.764C30.7286 283.287 36.4894 278.609 42.2227 278.1C48.3008 277.56 54.7397 280.294 63.6402 287.193C76.0344 296.8 82.0742 304.525 100.351 334.143C104.753 341.277 115.36 356.163 117.704 358.497C119.462 360.249 121.746 361.073 121.746 359.956C121.746 359.704 122.231 356.199 122.824 352.166C125.289 335.397 125.008 331.635 119.523 308.003C115.039 288.682 109.605 273.252 104.734 266.009C103.135 263.63 100.516 261.781 99.4212 262.258C99.0463 262.421 97.9922 264.056 97.0786 265.892C95.056 269.958 92.2255 272.706 88.6887 274.038C86.5196 274.856 84.587 274.978 78.1685 274.708C64.5942 274.137 56.3195 270.447 47.4104 260.994C42.3972 255.674 39.8796 250.873 40.7059 248.207C40.9978 247.266 41.8386 246.135 42.5744 245.694C45.0026 244.238 48.1209 245.292 57.5056 250.739C69.7867 257.867 71.8039 257.785 78.196 249.905C83.0954 243.865 83.0055 244.103 82.3387 239.009C81.2915 231.006 83.0626 224.422 88.49 216.14C90.1102 213.668 91.7111 210.71 92.0472 209.568C92.9316 206.566 92.7824 202.012 91.6022 195.958C89.6755 186.076 86.2627 178.906 80.28 172.171C75.6272 166.934 70.5074 163.652 64.6496 162.154C59.3079 160.786 40.8438 161.326 33.7359 163.058ZM88.5643 241.592C87.4057 243.597 87.7838 246.227 90.288 253.591C91.4024 256.868 92.3504 260.899 92.5136 263.055C92.763 266.355 92.6688 266.888 91.7342 267.455C89.2952 268.936 87.5473 265.113 84.8622 252.427C84.3467 249.991 83.7693 247.999 83.5786 248.003C83.3885 248.006 81.7321 249.893 79.8975 252.196C75.6886 257.48 72.6705 259.234 68.4406 258.856C65.3999 258.584 64.0814 257.958 53.4491 251.732C47.7907 248.418 44.1074 247.261 43.3926 248.573C41.6862 251.704 50.4375 261.843 58.9939 266.65C65.1236 270.094 68.6808 271.121 76.7933 271.79C88.0709 272.72 91.5344 271.131 95.5128 263.202C97.5031 259.236 99.3835 258.437 102.588 260.197C104.082 261.017 105.745 262.657 106.913 264.463C111.77 271.967 117.318 287.055 121.013 302.805C122.132 307.579 123.141 311.38 123.253 311.253C124.123 310.266 117.424 280.348 113.942 269.674C109.684 256.617 102.992 245.949 96.5884 242.008C92.6084 239.559 89.822 239.414 88.5643 241.592ZM19.9973 270.182C16.0258 279.539 15.764 293.673 19.214 312.454C21.7375 326.189 22.5709 332.617 23.4117 344.839C24.1712 355.88 24.1722 357.964 23.4192 366.524C22.3139 379.082 20.6689 386.727 16.879 396.919C16.6781 397.461 17.2588 397.683 18.8736 397.683C21.562 397.683 30.8175 401.078 35.655 403.839C39.321 405.931 46.6697 411.423 53.6075 417.254C58.6621 421.503 60.1116 421.905 59.5907 418.914C59.0311 415.7 55.866 408.657 51.6495 401.243C45.5537 390.523 38.1899 373.51 36.4684 366.168C34.7991 359.046 34.7113 357.527 35.8629 355.663C37.5963 352.855 39.7719 353.814 49.2983 361.583C57.5789 368.336 64.5995 373.505 64.9502 373.107C65.2955 372.716 61.6806 367.615 54.6546 358.581C44.924 346.07 39.1406 336.56 32.4894 322.133C28.727 313.973 26.8229 308.118 24.4718 297.48C23.0874 291.216 22.9194 289.405 22.9124 280.684C22.9048 270.973 22.9366 270.722 25.1235 263.271C25.6465 261.487 21.067 267.662 19.9973 270.182ZM37.976 282.429C32.6521 285.241 28.5606 292.321 28.5606 298.72C28.5606 305.737 34.3149 321.076 39.4536 327.758C41.0167 329.792 45.2046 334.327 48.7597 337.837C52.3147 341.347 63.8282 353.99 74.3452 365.933C84.8622 377.875 94.8222 388.805 96.4791 390.221C101.903 394.856 108.855 398.937 114.753 400.948C122.865 403.713 125.53 404.038 138.982 403.906C156.881 403.73 162.658 404.998 180.165 412.94C196.283 420.251 197.366 420.841 205.754 426.887C207.669 428.267 209.33 429.289 209.447 429.157C209.892 428.651 194.541 406.725 187.61 397.969C182.958 392.092 177.581 387.214 172.648 384.393C166.526 380.893 158.242 379.161 139.79 377.523C134.102 377.019 132.26 376.609 129.974 375.341C126.576 373.457 123.506 369.573 122.689 366.126C122.148 363.837 121.893 363.554 120.074 363.224C118.966 363.023 117.305 362.14 116.385 361.261C113.575 358.58 104.047 344.948 95.0824 330.783C81.6158 309.505 80.9463 308.544 74.6442 301.456C60.0712 285.065 46.4079 277.976 37.976 282.429ZM46.2237 342.203C49.2008 346.871 53.0371 352.115 60.9368 362.318C65.9575 368.802 67.8815 371.992 67.8815 373.827C67.8815 375.972 66.6744 377.159 64.9836 376.678C63.3962 376.226 54.7198 369.771 46.1387 362.658C39.4229 357.091 37.7175 356.313 37.7175 358.819C37.7175 360.785 40.0988 369.989 41.8155 374.658C43.6997 379.783 49.3963 391.53 54.3142 400.432C62.397 415.063 64.4132 422.923 60.3901 424.117C58.8323 424.579 54.702 422.172 50.1063 418.125C40.4775 409.646 33.6368 405.279 25.3077 402.295C20.844 400.695 15.436 400.228 14.8042 401.387C13.9176 403.014 17.6536 405.735 23.9821 408.071C39.9523 413.965 54.1175 430.395 63.3402 453.723C65.5766 459.379 66.9275 464.488 68.4745 473.137C69.13 476.803 69.1301 476.803 70.2995 471.304C71.4608 465.841 75.0223 455.364 78.0241 448.578C78.8865 446.628 81.9589 438.434 84.852 430.37C90.7943 413.802 95.7929 401.494 97.7794 398.54C98.5184 397.442 99.1228 396.425 99.1228 396.28C99.1228 396.136 97.39 394.557 95.272 392.77C93.1541 390.984 84.1253 381.152 75.2076 370.922C60.1789 353.681 43.7864 336.22 43.2256 336.856C43.0937 337.005 44.443 339.412 46.2237 342.203Z" fill="white"/>
</svg>