<svg width="204" height="94" viewBox="0 0 204 94" fill="none" xmlns="http://www.w3.org/2000/svg">
  <path fill-rule="evenodd" clip-rule="evenodd" d="M102.704 0.72166C114.48 3.22153 122.898 10.3459 127.868 22.0187C129.009 24.6988 131.557 32.5554 133.529 39.4769C137.681 54.0437 142.569 65.8766 146.515 70.9092C149.422 74.6176 154.669 79.0107 158.447 80.9008C163.149 83.252 168.478 84.4685 176.722 85.0715C188.819 85.9566 196.411 87.4569 201.679 90.003C203.809 91.0325 204.613 92.4633 203.499 93.2406C203.239 93.4215 201.314 92.9128 199.221 92.1094C193.959 90.0889 186.476 88.7464 177.108 88.1427C157.818 86.8995 146.761 79.7416 139.16 63.5784C137.57 60.1983 137.086 59.5392 137.075 60.7398C137.049 63.557 135.489 68.3552 134.129 69.797C133.134 70.852 132.205 71.1962 130.456 71.1566C128.289 71.1072 127.836 71.4002 124.359 75.1007C119.659 80.1028 114.907 83.3136 108.203 86.0187C97.5261 90.3265 87.1808 91.0282 79.5923 87.96C66.2434 82.5625 65.0212 81.8565 61.8947 77.7333C57.9944 72.5892 57.0177 68.2784 56.3124 53.0843C56.0729 47.925 56.2407 45.9928 57.41 40.454C58.1698 36.8577 59.4201 32.4719 60.1885 30.7079C61.5866 27.5008 61.5866 27.5008 57.369 32.4403C50.3935 40.6099 45.9557 43.206 37.233 44.2196C31.1494 44.9268 24.5452 44.0533 16.764 41.512C6.63934 38.2057 0 34.8366 0 33.0049C0 31.3743 1.04141 31.4212 4.16035 33.1913C7.66727 35.1814 19.0795 39.466 24.0126 40.6446C28.6381 41.7496 37.8444 41.6052 42.0895 40.3614C47.179 38.8696 50.8484 36.1066 55.5111 30.2541C63.7364 19.93 66.7382 16.6266 71.8607 12.2616C84.814 1.2248 92.1489 -1.51933 102.704 0.72166ZM88.8811 6.17764C86.8672 6.76971 85.2948 7.33924 85.3871 7.44401C85.4799 7.54818 87.1268 7.91914 89.0473 8.26817C96.7259 9.6643 103.191 15.4547 108.738 25.9025C111.443 30.9978 111.443 30.9978 115.753 32.6529C121.112 34.7105 123.07 35.8264 126.728 38.9074C128.857 40.7007 129.538 41.0424 129.32 40.2073C129.157 39.5841 128.625 37.2999 128.14 35.132C126.402 27.3796 121.04 17.0439 115.933 11.6056C112.605 8.06106 111.513 7.31488 107.382 5.76404C103.653 4.36426 94.343 4.57258 88.8811 6.17764ZM79.126 12.6752C74.1222 14.8809 69.1487 19.7503 65.8835 25.6405C63.9366 29.1522 63.7256 31.9913 65.2926 33.5921C66.3519 34.6746 66.3718 34.6563 66.3718 32.5962C66.3718 29.7991 67.7662 23.885 68.8772 21.9718C70.72 18.7964 74.391 17.8534 78.0986 19.6016C81.0433 20.9904 85.4896 25.082 87.8018 28.5297C89.8448 31.5753 89.8448 31.5753 92.8127 31.1319C94.445 30.8876 98.5325 30.5185 101.896 30.3126C108.012 29.9373 108.012 29.9373 105.352 25.3689C97.9735 12.6965 88.9663 8.33761 79.126 12.6752ZM71.8958 22.6564C70.4097 23.8314 68.9474 29.2813 69.1729 32.8064C69.3397 35.4195 69.3397 35.4195 72.0377 35.5761C75.4259 35.7722 86.4377 33.2528 86.7453 32.2106C87.041 31.2086 80.992 24.5319 78.377 22.9732C75.9218 21.51 73.4952 21.3913 71.8958 22.6564ZM95.3024 33.8821C93.5552 34.2049 92.0243 34.5832 91.9007 34.7233C91.7766 34.8634 92.2504 36.5848 92.953 38.5486C93.6555 40.5131 94.5507 43.4259 94.943 45.0224C95.4632 47.1422 95.9629 47.9932 96.7971 48.1783C97.4252 48.3185 99.5173 48.74 101.446 49.1158C105.632 49.9302 109.586 51.2953 112.426 52.9058C113.568 53.5533 114.621 53.9486 114.766 53.7842C115.246 53.2433 113.761 46.488 111.823 40.3912C110.456 36.0926 109.598 34.253 108.785 33.8821C107.224 33.1694 99.1552 33.1694 95.3024 33.8821ZM59.862 41.6869C59.2576 44.6076 58.8173 48.9379 58.8173 51.9604C58.8173 57.1856 58.8173 57.1856 61.0502 54.9086C62.2778 53.6562 64.9214 51.774 66.9239 50.7257C70.5646 48.8204 70.5646 48.8204 68.7839 43.6452C67.3636 39.5196 66.6357 38.2081 65.1939 37.1781C64.1989 36.4672 63.0381 35.414 62.6145 34.8378C61.8969 33.8614 61.8122 33.8876 61.3756 35.2136C61.1177 35.997 60.4367 38.9098 59.862 41.6869ZM114.684 40.8255C115.718 44.0929 116.898 48.9318 117.304 51.5785C118.044 56.3912 118.044 56.3912 122.51 61.1339C124.966 63.7422 127.234 65.876 127.549 65.876C128.749 65.876 130.183 59.8115 130.453 53.5978C130.722 47.4108 130.722 47.4108 128.272 44.4608C125.39 40.9918 121.1 37.9346 116.412 36.0098C114.562 35.2502 112.993 34.6867 112.925 34.7568C112.857 34.8268 113.649 37.5582 114.684 40.8255ZM81.1992 37.242C77.6443 38.0772 73.7035 38.7624 72.4424 38.7649C71.1814 38.7673 70.1588 38.9756 70.1707 39.2266C70.182 39.4775 70.8528 41.5912 71.66 43.9224C73.1288 48.1619 73.1288 48.1619 78.2492 47.8817C81.0654 47.7282 85.4945 47.6021 88.0911 47.6021C90.6882 47.6021 92.8127 47.4444 92.8127 47.2519C92.8127 46.5861 90.2225 38.3086 89.6112 37.0185C88.8487 35.411 89.0149 35.4061 81.1992 37.242ZM74.943 51.3001C74.7255 51.4524 75.7778 54.52 77.2817 58.1169C83.3226 72.5679 83.9906 78.7963 79.9365 82.8738C79.3019 83.5121 78.7828 84.2199 78.7828 84.4465C78.7828 85.3164 83.0382 86.3549 87.9562 86.6857C96.8516 87.2839 108.059 84.1542 115.762 78.9217C118.895 76.7941 125.729 70.1381 125.729 69.2153C125.729 68.6908 119.497 61.7522 118.744 61.4373C118.514 61.3416 118.2 63.0241 118.047 65.1767C117.631 71.0232 115.299 76.0948 111.491 79.4346C109.04 81.5843 105.268 81.3412 102.778 78.873C99.357 75.4826 96.4966 67.263 94.398 54.7923C93.8859 51.7503 93.5401 50.9602 92.613 50.7215C91.2726 50.3761 75.529 50.892 74.943 51.3001ZM96.5899 51.8764C96.5899 53.5137 99.2016 65.0945 100.448 68.9807C102.423 75.1445 104.483 77.754 107.373 77.754C109.927 77.754 111.6 76.2854 113.474 72.4004C115.056 69.119 116.062 62.9363 115.512 59.8669C115.22 58.2308 114.594 57.6278 111.142 55.653C108.925 54.3854 105.534 52.9685 103.605 52.5038C99.976 51.6291 96.5899 51.3263 96.5899 51.8764ZM67.4511 53.7354C63.4542 55.826 60.4362 59.1798 60.4362 61.5299C60.4362 63.7916 62.4289 67.6924 66.3983 73.202C70.7254 79.2074 73.6091 82.0222 75.4119 81.9985C79.5151 81.9449 80.9726 76.7161 78.8373 69.7099C77.1192 64.073 71.8877 52.17 71.1312 52.1767C70.7394 52.1797 69.0834 52.8814 67.4511 53.7354ZM130.896 66.0916C129.793 68.4989 130.697 69.1556 132.426 67.2033C133.987 65.4411 134.663 61.3599 134.081 57.1959C133.677 54.3025 133.677 54.3025 132.71 59.2736C132.178 62.0074 131.361 65.0756 130.896 66.0916ZM61.8807 72.8993C62.8601 74.7705 66.9055 79.4352 66.0912 77.754C65.4896 76.512 61.4765 71.0536 61.1646 71.0536C61.027 71.0536 61.3492 71.8839 61.8807 72.8993Z" fill="white"/>
</svg>